<?xml version="1.0" encoding="UTF-8" standalone="no"?>
<!-- Created with Inkscape (http://www.inkscape.org/) -->

<svg
   xmlns:dc="http://purl.org/dc/elements/1.1/"
   xmlns:cc="http://creativecommons.org/ns#"
   xmlns:rdf="http://www.w3.org/1999/02/22-rdf-syntax-ns#"
   xmlns:svg="http://www.w3.org/2000/svg"
   xmlns="http://www.w3.org/2000/svg"
   xmlns:sodipodi="http://sodipodi.sourceforge.net/DTD/sodipodi-0.dtd"
   xmlns:inkscape="http://www.inkscape.org/namespaces/inkscape"
   width="136.31"
   height="72.510002"
   id="svg4812"
   version="1.1"
   inkscape:version="0.48.1 "
   sodipodi:docname="Neues Dokument 3">
  <defs
     id="defs4814" />
  <sodipodi:namedview
     id="base"
     pagecolor="#ffffff"
     bordercolor="#666666"
     borderopacity="1.0"
     inkscape:pageopacity="0.0"
     inkscape:pageshadow="2"
     inkscape:zoom="0.65761719"
     inkscape:cx="246.84083"
     inkscape:cy="71.688747"
     inkscape:document-units="px"
     inkscape:current-layer="layer1"
     showgrid="false"
     fit-margin-top="0"
     fit-margin-left="0"
     fit-margin-right="0"
     fit-margin-bottom="0"
     inkscape:window-width="1024"
     inkscape:window-height="678"
     inkscape:window-x="-4"
     inkscape:window-y="-4"
     inkscape:window-maximized="1" />
  <metadata
     id="metadata4817">
    <rdf:RDF>
      <cc:Work
         rdf:about="">
        <dc:format>image/svg+xml</dc:format>
        <dc:type
           rdf:resource="http://purl.org/dc/dcmitype/StillImage" />
        <dc:title></dc:title>
      </cc:Work>
    </rdf:RDF>
  </metadata>
  <g
     inkscape:label="Ebene 1"
     inkscape:groupmode="layer"
     id="layer1"
     transform="translate(-103.15917,-531.54093)">
    <path
       inkscape:connector-curvature="0"
       d="m 226.22435,570.01243 12.2425,0 0,-4.44 -12.2425,0 0,4.44 z m 0,24.2925 12.2425,0 0,-4.44 -12.2425,0 0,4.44 z m 0,-48.58625 12.2425,0 0,-4.44 -12.2425,0 0,4.44 z m 0,8.09875 12.2425,0 0,-4.44 -12.2425,0 0,4.44 z m 0,24.2925 12.2425,0 0,-4.44 -12.2425,0 0,4.44 z m 0,-16.19625 12.2425,0 0,-4.44 -12.2425,0 0,4.44 z m 0,24.29375 12.2425,0 0,-4.44 -12.2425,0 0,4.44 z m 0,16.84125 12.2425,0 0,-5.08625 -12.2425,0 0,5.08625 z m 12.2425,-70.50375 -12.2425,0 0,5.0775 12.2425,0 0,-5.0775 z"
       style="fill:#7c3746;fill-opacity:1;fill-rule:nonzero;stroke:none"
       id="path1336" />
    <g
       id="g1338"
       transform="matrix(1.25,0,0,-1.25,174.37173,532.5443)">
      <path
         inkscape:connector-curvature="0"
         d="m 0,0 -9.796,0 0,-4.062 12.667,0 L 0,0 z m 4.942,-6.988 -14.738,0 0,-3.551 17.251,0 -2.513,3.551 z"
         style="fill:#7c3746;fill-opacity:1;fill-rule:nonzero;stroke:none"
         id="path1340" />
    </g>
    <g
       id="g1342"
       transform="matrix(1.25,0,0,-1.25,134.69648,597.96181)">
      <path
         inkscape:connector-curvature="0"
         d="m 0,0 c -0.385,-0.046 -0.777,-0.072 -1.175,-0.072 -0.393,0 -0.782,0.026 -1.166,0.072 l -22.087,0 0,-4.069 30.384,0 0,0.023 C 9.363,-3.848 12.434,-2.341 14.7,0 L 0,0"
         style="fill:#7c3746;fill-opacity:1;fill-rule:nonzero;stroke:none"
         id="path1344" />
    </g>
    <path
       inkscape:connector-curvature="0"
       d="m 104.16185,578.10993 12.24,0 0,-4.44 -12.24,0 0,4.44 z"
       style="fill:#7c3746;fill-opacity:1;fill-rule:nonzero;stroke:none"
       id="path1346" />
    <path
       inkscape:connector-curvature="0"
       d="m 104.16185,553.81743 12.24,0 0,-4.44 -12.24,0 0,4.44 z"
       style="fill:#7c3746;fill-opacity:1;fill-rule:nonzero;stroke:none"
       id="path1348" />
    <path
       inkscape:connector-curvature="0"
       d="m 104.16185,561.91368 12.24,0 0,-4.44 -12.24,0 0,4.44 z"
       style="fill:#7c3746;fill-opacity:1;fill-rule:nonzero;stroke:none"
       id="path1350" />
    <path
       inkscape:connector-curvature="0"
       d="m 104.16185,545.71868 12.24,0 0,-4.44 -12.24,0 0,4.44 z"
       style="fill:#7c3746;fill-opacity:1;fill-rule:nonzero;stroke:none"
       id="path1352" />
    <path
       inkscape:connector-curvature="0"
       d="m 104.16185,586.20743 12.24,0 0,-4.44 -12.24,0 0,4.44 z"
       style="fill:#7c3746;fill-opacity:1;fill-rule:nonzero;stroke:none"
       id="path1354" />
    <path
       inkscape:connector-curvature="0"
       d="m 104.16185,594.30493 12.24,0 0,-4.44 -12.24,0 0,4.44 z"
       style="fill:#7c3746;fill-opacity:1;fill-rule:nonzero;stroke:none"
       id="path1356" />
    <g
       id="g1358"
       transform="matrix(1.25,0,0,-1.25,133.22785,598.05218)">
      <path
         inkscape:connector-curvature="0"
         d="m 0,0 c 0.398,0 0.79,0.026 1.175,0.072 l -2.341,0 C -0.782,0.026 -0.393,0 0,0"
         style="fill:#5d152c;fill-opacity:1;fill-rule:nonzero;stroke:none"
         id="path1360" />
    </g>
    <g
       id="g1362"
       transform="matrix(1.25,0,0,-1.25,156.34797,578.10955)">
      <path
         inkscape:connector-curvature="0"
         d="m 0,0 c -0.612,1.313 -1.422,2.506 -2.38,3.552 l -10.383,0 C -11.447,2.64 -10.352,1.422 -9.561,0 L 0,0"
         style="fill:#7c3746;fill-opacity:1;fill-rule:nonzero;stroke:none"
         id="path1364" />
    </g>
    <g
       id="g1366"
       transform="matrix(1.25,0,0,-1.25,145.7816,581.76793)">
      <path
         inkscape:connector-curvature="0"
         d="m 0,0 c 0.166,-0.763 0.26,-1.557 0.26,-2.372 0,-0.4 -0.025,-0.792 -0.064,-1.18 l 9.574,0 c 0.002,0.148 0.01,0.295 0.01,0.444 0,1.07 -0.121,2.109 -0.341,3.108 L 0,0"
         style="fill:#7c3746;fill-opacity:1;fill-rule:nonzero;stroke:none"
         id="path1368" />
    </g>
    <g
       id="g1370"
       transform="matrix(1.25,0,0,-1.25,142.17572,594.30456)">
      <path
         inkscape:connector-curvature="0"
         d="m 0,0 10.881,0 c 0.61,1.098 1.079,2.29 1.382,3.552 l -9.913,0 C 1.806,2.205 0.997,0.999 0,0"
         style="fill:#7c3746;fill-opacity:1;fill-rule:nonzero;stroke:none"
         id="path1372" />
    </g>
    <g
       id="g1374"
       transform="matrix(1.25,0,0,-1.25,141.85335,550.74443)">
      <path
         inkscape:connector-curvature="0"
         d="m 0,0 c 0,-0.845 -0.091,-1.666 -0.258,-2.458 l 9.263,0 c 0.143,0.841 0.222,1.704 0.222,2.588 0,0.324 -0.016,0.645 -0.035,0.964 l -9.242,0 C -0.016,0.734 0,0.369 0,0"
         style="fill:#7c3746;fill-opacity:1;fill-rule:nonzero;stroke:none"
         id="path1376" />
    </g>
    <g
       id="g1378"
       transform="matrix(1.25,0,0,-1.25,140.97322,545.71818)">
      <path
         inkscape:connector-curvature="0"
         d="M 0,0 9.431,0 C 9.104,1.262 8.622,2.454 8.004,3.552 l -10.101,0 C -1.201,2.53 -0.484,1.328 0,0"
         style="fill:#7c3746;fill-opacity:1;fill-rule:nonzero;stroke:none"
         id="path1380" />
    </g>
    <g
       id="g1382"
       transform="matrix(1.25,0,0,-1.25,136.5446,561.9133)">
      <path
         inkscape:connector-curvature="0"
         d="m 0,0 10.481,0 c 0.808,1.069 1.475,2.263 1.972,3.552 l -9.512,0 C 2.211,2.152 1.203,0.939 0,0"
         style="fill:#7c3746;fill-opacity:1;fill-rule:nonzero;stroke:none"
         id="path1384" />
    </g>
    <g
       id="g1386"
       transform="matrix(1.25,0,0,-1.25,124.98085,537.62068)">
      <path
         inkscape:connector-curvature="0"
         d="m 0,0 18.621,0 c -2.187,2.271 -5.089,3.75 -8.312,4.015 l 0,0.047 -26.964,0 0,-4.062 L 0,0"
         style="fill:#7c3746;fill-opacity:1;fill-rule:nonzero;stroke:none"
         id="path1388" />
    </g>
    <g
       id="g1390"
       transform="matrix(1.25,0,0,-1.25,141.18572,568.25668)">
      <path
         inkscape:connector-curvature="0"
         d="m 0,0 c -0.479,0 -0.95,-0.028 -1.418,-0.079 1.9,0.347 3.667,1.119 5.205,2.227 l -33.406,0 0,-3.552 35.515,0 C 4.115,-0.505 2.113,0 0,0"
         style="fill:#7c3746;fill-opacity:1;fill-rule:nonzero;stroke:none"
         id="path1392" />
    </g>
    <g
       id="g1394"
       transform="matrix(1.25,0,0,-1.25,124.81972,537.67555)">
      <path
         inkscape:connector-curvature="0"
         d="m 0,0 0.129,0.043 -0.083,0 L 0,0 z"
         style="fill:#5d152c;fill-opacity:1;fill-rule:nonzero;stroke:none"
         id="path1396" />
    </g>
    <path
       inkscape:connector-curvature="0"
       d="m 162.12685,586.20743 6.295,0 0,-4.44 -6.295,0 0,4.44 z"
       style="fill:#7c3746;fill-opacity:1;fill-rule:nonzero;stroke:none"
       id="path1398" />
    <path
       inkscape:connector-curvature="0"
       d="m 162.12685,570.01243 6.295,0 0,-4.44 -6.295,0 0,4.44 z"
       style="fill:#7c3746;fill-opacity:1;fill-rule:nonzero;stroke:none"
       id="path1400" />
    <path
       inkscape:connector-curvature="0"
       d="m 162.12685,603.04868 6.295,0 0,-5.08625 -6.295,0 0,5.08625 z"
       style="fill:#7c3746;fill-opacity:1;fill-rule:nonzero;stroke:none"
       id="path1402" />
    <path
       inkscape:connector-curvature="0"
       d="m 162.12685,594.30493 6.295,0 0,-4.44 -6.295,0 0,4.44 z"
       style="fill:#7c3746;fill-opacity:1;fill-rule:nonzero;stroke:none"
       id="path1404" />
    <path
       inkscape:connector-curvature="0"
       d="m 162.12685,561.91368 6.295,0 0,-4.44 -6.295,0 0,4.44 z"
       style="fill:#7c3746;fill-opacity:1;fill-rule:nonzero;stroke:none"
       id="path1406" />
    <path
       inkscape:connector-curvature="0"
       d="m 162.12685,578.10993 6.295,0 0,-4.44 -6.295,0 0,4.44 z"
       style="fill:#7c3746;fill-opacity:1;fill-rule:nonzero;stroke:none"
       id="path1408" />
    <path
       inkscape:connector-curvature="0"
       d="m 212.69935,570.01243 6.2975,0 0,-4.44 -6.2975,0 0,4.44 z"
       style="fill:#7c3746;fill-opacity:1;fill-rule:nonzero;stroke:none"
       id="path1410" />
    <path
       inkscape:connector-curvature="0"
       d="m 212.69935,561.91368 6.2975,0 0,-4.44 -6.2975,0 0,4.44 z"
       style="fill:#7c3746;fill-opacity:1;fill-rule:nonzero;stroke:none"
       id="path1412" />
    <path
       inkscape:connector-curvature="0"
       d="m 212.69935,553.81743 6.2975,0 0,-4.44 -6.2975,0 0,4.44 z"
       style="fill:#7c3746;fill-opacity:1;fill-rule:nonzero;stroke:none"
       id="path1414" />
    <path
       inkscape:connector-curvature="0"
       d="m 212.69935,537.62118 6.2975,0 0,-5.0775 -6.2975,0 0,5.0775 z"
       style="fill:#7c3746;fill-opacity:1;fill-rule:nonzero;stroke:none"
       id="path1416" />
    <path
       inkscape:connector-curvature="0"
       d="m 212.69935,545.71868 6.2975,0 0,-4.44 -6.2975,0 0,4.44 z"
       style="fill:#7c3746;fill-opacity:1;fill-rule:nonzero;stroke:none"
       id="path1418" />
    <path
       inkscape:connector-curvature="0"
       d="m 212.69935,578.10993 6.2975,0 0,-4.44 -6.2975,0 0,4.44 z"
       style="fill:#7c3746;fill-opacity:1;fill-rule:nonzero;stroke:none"
       id="path1420" />
    <g
       id="g1422"
       transform="matrix(1.25,0,0,-1.25,197.73973,565.57168)">
      <path
         inkscape:connector-curvature="0"
         d="m 0,0 -14.002,0 2.512,-3.552 14.002,0 L 0,0 z"
         style="fill:#7c3746;fill-opacity:1;fill-rule:nonzero;stroke:none"
         id="path1424" />
    </g>
    <g
       id="g1426"
       transform="matrix(1.25,0,0,-1.25,185.96472,573.66918)">
      <path
         inkscape:connector-curvature="0"
         d="m 0,0 2.514,-3.552 14.002,0 L 14.002,0 0,0 z"
         style="fill:#7c3746;fill-opacity:1;fill-rule:nonzero;stroke:none"
         id="path1428" />
    </g>
    <g
       id="g1430"
       transform="matrix(1.25,0,0,-1.25,192.0061,557.47293)">
      <path
         inkscape:connector-curvature="0"
         d="m 0,0 -13.998,0 2.513,-3.552 14.001,0 L 0,0 z"
         style="fill:#7c3746;fill-opacity:1;fill-rule:nonzero;stroke:none"
         id="path1432" />
    </g>
    <g
       id="g1434"
       transform="matrix(1.25,0,0,-1.25,206.75335,597.96181)">
      <path
         inkscape:connector-curvature="0"
         d="M 0,0 -2.879,0 0,-4.068 l 0,-0.001 9.795,0 L 9.795,0 0,0 z"
         style="fill:#7c3746;fill-opacity:1;fill-rule:nonzero;stroke:none"
         id="path1436" />
    </g>
    <g
       id="g1438"
       transform="matrix(1.25,0,0,-1.25,206.75335,589.8643)">
      <path
         inkscape:connector-curvature="0"
         d="m 0,0 -7.461,0 2.513,-3.552 14.743,0 L 9.795,0 0,0 z"
         style="fill:#7c3746;fill-opacity:1;fill-rule:nonzero;stroke:none"
         id="path1440" />
    </g>
    <g
       id="g1442"
       transform="matrix(1.25,0,0,-1.25,168.42198,557.47293)">
      <path
         inkscape:connector-curvature="0"
         d="M 0,0 0.111,0 0,0.155 0,0 z"
         style="fill:#5d152c;fill-opacity:1;fill-rule:nonzero;stroke:none"
         id="path1444" />
    </g>
    <g
       id="g1446"
       transform="matrix(1.25,0,0,-1.25,212.69935,578.31218)">
      <path
         inkscape:connector-curvature="0"
         d="m 0,0 0,0.162 -0.113,0 L 0,0 z"
         style="fill:#5d152c;fill-opacity:1;fill-rule:nonzero;stroke:none"
         id="path1448" />
    </g>
    <g
       id="g1458"
       transform="matrix(1.25,0,0,-1.25,171.9181,553.81693)">
      <path
         inkscape:connector-curvature="0"
         d="M 0,0 14.004,0 11.49,3.552 -2.586,3.552 -0.028,0 0,0 z"
         style="fill:#7c3746;fill-opacity:1;fill-rule:nonzero;stroke:none"
         id="path1460" />
    </g>
    <path
       inkscape:connector-curvature="0"
       d="m 162.12685,553.81743 6.295,0 0,-4.44 -6.295,0 0,4.44 z"
       style="fill:#7c3746;fill-opacity:1;fill-rule:nonzero;stroke:none"
       id="path1462" />
    <g
       id="g1464"
       transform="matrix(1.25,0,0,-1.25,191.69472,581.76793)">
      <path
         inkscape:connector-curvature="0"
         d="m 0,0 2.516,-3.552 14.085,0 L 14.045,0 0,0 z"
         style="fill:#7c3746;fill-opacity:1;fill-rule:nonzero;stroke:none"
         id="path1466" />
    </g>
    <path
       inkscape:connector-curvature="0"
       d="m 212.67685,586.20743 6.32,0 0,-4.44 -6.32,0 0,4.44 z"
       style="fill:#7c3746;fill-opacity:1;fill-rule:nonzero;stroke:none"
       id="path1468" />
  </g>
</svg>
